<?xml version="1.0" encoding="UTF-8" standalone="no"?>
<svg
   xmlns:dc="http://purl.org/dc/elements/1.1/"
   xmlns:cc="http://creativecommons.org/ns#"
   xmlns:rdf="http://www.w3.org/1999/02/22-rdf-syntax-ns#"
   xmlns:svg="http://www.w3.org/2000/svg"
   xmlns="http://www.w3.org/2000/svg"
   xmlns:sodipodi="http://sodipodi.sourceforge.net/DTD/sodipodi-0.dtd"
   xmlns:inkscape="http://www.inkscape.org/namespaces/inkscape"
   stroke-miterlimit="10"
   viewBox="100 100 623.61621 257.42078"
   id="svg3336"
   version="1.1"
   inkscape:version="0.91 r13725"
   sodipodi:docname="genalgoLogo.svg"
   width="623.61621"
   height="257.42078"
   style="clip-rule:evenodd;stroke-miterlimit:10">
  <metadata
     id="metadata3356">
    <rdf:RDF>
      <cc:Work
         rdf:about="">
        <dc:format>image/svg+xml</dc:format>
        <dc:type
           rdf:resource="http://purl.org/dc/dcmitype/StillImage" />
        <dc:title></dc:title>
      </cc:Work>
    </rdf:RDF>
  </metadata>
  <sodipodi:namedview
     pagecolor="#ffffff"
     bordercolor="#666666"
     borderopacity="1"
     objecttolerance="10"
     gridtolerance="10"
     guidetolerance="10"
     inkscape:pageopacity="0"
     inkscape:pageshadow="2"
     inkscape:window-width="1414"
     inkscape:window-height="849"
     id="namedview3354"
     showgrid="false"
     inkscape:zoom="1.38"
     inkscape:cx="243.22586"
     inkscape:cy="139.14967"
     inkscape:window-x="23"
     inkscape:window-y="0"
     inkscape:window-maximized="0"
     inkscape:current-layer="svg3336"
     inkscape:snap-text-baseline="false"
     fit-margin-top="0"
     fit-margin-left="0"
     fit-margin-right="0"
     fit-margin-bottom="0" />
  <defs
     id="defs3338">
    <style
       id="style3340">
        @import url(http://fonts.googleapis.com/css?family=Quicksand:400,700);
      </style>
  </defs>
  <g
     id="g3360"
     transform="matrix(0.6669137,0,0,0.6669137,360.25449,33.308628)">
    <path
       sodipodi:nodetypes="ccc"
       d="m 279.98876,103.39995 c 10.4,32 19.12352,74.14706 8.52352,106.14706 -12.9,39 -48.06137,83.69542 -86.11176,83.74118"
       id="path3344"
       inkscape:connector-curvature="0"
       style="fill:none;stroke:#0096ff;stroke-width:22" />
    <path
       sodipodi:nodetypes="ccc"
       d="m 125.40052,482.58819 c -10.4,-32 -20.3,-72.38236 -9.7,-104.38236 12.9,-39 47.77442,-85.84707 86.7,-84.91764"
       id="path3346"
       inkscape:connector-curvature="0"
       style="fill:none;stroke:#00f900;stroke-width:22" />
    <path
       sodipodi:nodetypes="ccc"
       d="m 279.40052,482.58819 c 10.4,-32 19.71176,-74.14706 9.11176,-106.14706 -12.9,-39 -44.76722,-83.77826 -86.11176,-83.15294"
       id="path3348"
       inkscape:connector-curvature="0"
       style="fill:none;stroke:#ff2600;stroke-width:22" />
    <path
       sodipodi:nodetypes="ccc"
       d="m 125.40269,103.78159 c -10.39923,32.03357 -20.29924,70.68742 -9.70002,102.721 12.89904,39.04092 46.89649,87.30349 86.6943,86.77761"
       id="path3350"
       inkscape:connector-curvature="0"
       style="fill:none;stroke:#fefb00;stroke-width:22.01072121" />
  </g>
  <g
     id="g3366">
    <path
       d="m 109.45,248.02981 q -9.45,-9.72 -9.45,-23.625 0,-14.04 9.45,-24.03 9.45,-10.125 22.95,-10.125 10.26,0 18.09,5.67 0.54,-2.43 2.565,-4.05 2.025,-1.62 4.725,-1.62 2.835,0 4.86,2.16 2.16,2.025 2.16,4.995 l 0,52.11 q 0,13.365 -9.585,22.815 -9.45,9.585 -22.815,9.585 -7.695,0 -14.175,-3.375 -2.7,-1.215 -3.645,-4.185 -0.945,-2.835 0.405,-5.535 1.35,-2.7 4.05,-3.645 2.835,-0.945 5.67,0.27 3.51,1.89 8.775,1.89 5.4,0 10.26,-4.185 4.995,-4.05 6.345,-10.26 -7.83,5.4 -17.685,5.4 -13.5,0 -22.95,-10.26 z m 5.13,-23.625 q 0,7.965 5.13,13.635 5.13,5.67 12.69,5.67 7.695,0 12.825,-5.535 5.13,-5.535 5.13,-13.77 0,-8.235 -5.265,-13.905 -5.13,-5.805 -12.555,-5.805 -7.425,0 -12.69,5.94 -5.265,5.805 -5.265,13.77 z"
       style="font-weight:bold;font-size:135px;font-family:Quicksand-Bold, Quicksand;fill:#ff9300"
       id="path3347"
       inkscape:connector-curvature="0" />
    <path
       d="m 254.3261,222.24481 q 0,2.97 -2.025,4.86 -1.89,1.755 -5.13,1.755 l -42.93,0 q 1.215,5.805 4.59,8.91 4.32,4.995 12.555,6.075 8.37,0.945 14.445,-3.375 2.025,-2.16 5.4,-2.16 3.375,0 4.725,1.755 3.78,4.185 0,8.775 -9.72,8.91 -23.895,8.91 -14.04,-0.135 -23.625,-9.99 -9.45,-9.855 -9.585,-23.76 0.135,-13.905 9.585,-23.76 9.585,-9.99 23.085,-9.99 13.5,0 22.68,8.91 9.315,8.775 10.125,22.41 l 0,0.675 z m -32.535,-19.17 q -7.83,0.405 -12.555,4.86 -4.725,4.455 -5.67,9.45 l 38.205,0 q -1.215,-4.725 -6.615,-9.18 -5.265,-4.455 -13.365,-5.13 z"
       style="font-weight:bold;font-size:135px;font-family:Quicksand-Bold, Quicksand;fill:#ff9300"
       id="path3349"
       inkscape:connector-curvature="0" />
    <path
       d="m 290.42172,250.59481 q 0,2.97 -2.295,5.13 -2.295,2.025 -5.265,2.025 -2.835,0 -4.995,-2.025 -2.025,-2.16 -2.025,-5.13 l 0,-53.19 q 0,-2.97 2.025,-4.995 2.16,-2.16 5.13,-2.16 4.59,0 6.615,4.185 6.615,-4.185 14.31,-4.185 11.745,0 19.98,8.37 8.235,8.235 8.235,19.71 l 0,32.265 q 0,2.97 -2.025,5.13 -2.025,2.025 -4.995,2.025 -2.835,0 -4.995,-2.025 -2.16,-2.16 -2.16,-5.13 l 0,-32.265 q 0,-5.67 -4.185,-9.585 -4.05,-4.05 -9.855,-4.05 -5.67,0 -9.585,4.05 -3.915,3.915 -3.915,9.585 l 0,32.265 z"
       style="font-weight:bold;font-size:135px;font-family:Quicksand-Bold, Quicksand;fill:#ff9300"
       id="path3351"
       inkscape:connector-curvature="0" />
    <path
       d="m 383.87336,257.74981 q -13.635,0 -22.95,-9.855 -9.18,-9.855 -9.18,-23.76 0,-14.04 9.18,-23.895 9.315,-9.99 22.95,-9.99 9.585,0 17.955,5.94 0.675,-2.565 2.565,-4.185 1.89,-1.755 4.59,-1.755 2.835,0 4.86,2.16 2.16,2.16 2.16,5.13 l 0,53.055 q 0,2.97 -2.16,5.13 -2.025,2.025 -4.86,2.025 -2.7,0 -4.59,-1.62 -1.89,-1.62 -2.565,-4.185 -8.235,5.805 -17.955,5.805 z m -17.685,-33.615 q 0,8.1 4.86,13.635 4.995,5.535 12.69,5.535 7.83,0 12.825,-5.535 5.13,-5.535 5.13,-13.635 0,-8.1 -5.13,-13.77 -5.13,-5.67 -12.825,-5.67 -7.56,0 -12.555,5.67 -4.995,5.535 -4.995,13.77 z"
       style="font-weight:bold;font-size:135px;font-family:Quicksand-Bold, Quicksand;fill:#ff9300"
       id="path3353"
       inkscape:connector-curvature="0" />
    <path
       d="m 578.06513,248.75445 q -9.45,-9.72 -9.45,-23.625 0,-14.04 9.45,-24.03 9.45,-10.125 22.95,-10.125 10.26,0 18.09,5.67 0.54,-2.43 2.565,-4.05 2.025,-1.62 4.725,-1.62 2.835,0 4.86,2.16 2.16,2.025 2.16,4.995 l 0,52.11 q 0,13.365 -9.585,22.815 -9.45,9.585 -22.815,9.585 -7.695,0 -14.175,-3.375 -2.7,-1.215 -3.645,-4.185 -0.945,-2.835 0.405,-5.535 1.35,-2.7 4.05,-3.645 2.835,-0.945 5.67,0.27 3.51,1.89 8.775,1.89 5.4,0 10.26,-4.185 4.995,-4.05 6.345,-10.26 -7.83,5.4 -17.685,5.4 -13.5,0 -22.95,-10.26 z m 5.13,-23.625 q 0,7.965 5.13,13.635 5.13,5.67 12.69,5.67 7.695,0 12.825,-5.535 5.13,-5.535 5.13,-13.77 0,-8.235 -5.265,-13.905 -5.13,-5.805 -12.555,-5.805 -7.425,0 -12.69,5.94 -5.265,5.805 -5.265,13.77 z"
       style="font-weight:bold;font-size:135px;font-family:Quicksand-Bold, Quicksand;fill:#ff9300"
       id="path3357"
       inkscape:connector-curvature="0" />
    <path
       d="m 714.16622,248.61945 q -8.91,10.26 -22.545,10.26 -13.635,0 -23.085,-9.99 -9.45,-9.99 -9.45,-23.895 0,-13.905 9.45,-23.895 9.585,-10.125 22.95,-10.125 13.365,0 22.68,10.26 9.45,10.125 9.45,24.165 0,14.04 -9.45,23.22 z m -35.505,-37.8 q -4.86,5.67 -4.86,14.04 0,8.37 4.86,14.31 5.265,4.995 12.69,4.995 7.425,0 12.69,-4.995 5.265,-5.94 5.265,-14.31 0,-8.37 -5.265,-14.04 -5.805,-5.13 -12.69,-5.13 -6.885,0 -12.69,5.13 z"
       style="font-weight:bold;font-size:135px;font-family:Quicksand-Bold, Quicksand;fill:#ff9300"
       id="path3359"
       inkscape:connector-curvature="0" />
  </g>
</svg>
